<svg aria-hidden="true" style="position: absolute; width: 0; height: 0; overflow: hidden;" version="1.1" xmlns="http://www.w3.org/2000/svg" xmlns:xlink="http://www.w3.org/1999/xlink"><defs><symbol id="icon-location" viewBox="0 0 26 32"><path d="M22.436 4.385c5.084 5.035 5.123 13.239 0.087 18.323l-0.087 0.087-9.293 9.205-9.293-9.206c-5.084-5.035-5.124-13.238-0.087-18.322l0.087-0.087c5.147-5.098 13.44-5.098 18.586 0zM13.143 8.249c-2.978 0-5.392 2.391-5.392 5.341s2.415 5.341 5.392 5.341 5.392-2.391 5.392-5.341-2.415-5.341-5.392-5.341z"></path></symbol><symbol id="icon-arrow" viewBox="0 0 58 58" fill="none"><path d="M0 0H43C51.2843 0 58 6.71573 58 15V43C58 51.2843 51.2843 58 43 58H0V0Z" fill="black"/><path d="M26 23L32 29L26 35" stroke="white" stroke-width="3"/></symbol></defs></svg>
